<svg width="313" height="76" viewBox="0 0 313 76" fill="none" xmlns="http://www.w3.org/2000/svg">
<path fill-rule="evenodd" clip-rule="evenodd" d="M134.9 0V75.8H0V0H20V17.5H7.5V27.9H20V65.5H31.1V27.9H51.5V65.5H62.6V40.6C62.6 31.4667 65.6333 26.9 71.7 26.9C73.7 26.9 75.7333 27.6667 77.8 29.2L82.9 19C79.7 17.1333 76.6333 16.2 73.7 16.2C71.5 16.2 69.6 16.6 68 17.4C66.4667 18.2 64.6667 19.6667 62.6 21.8V17.5H31.1V0H134.9ZM122.4 19.6C118.2 17.3333 113.733 16.2 109 16.2C101.667 16.2 95.4667 18.6667 90.4 23.6C85.3333 28.5333 82.8 34.5667 82.8 41.7C82.8 48.8333 85.3 54.8333 90.3 59.7C95.3 64.5 101.5 66.9 108.9 66.9C113.433 66.9 117.933 65.7333 122.4 63.4V48.7C119.733 51.9667 117.433 54.1667 115.5 55.3C113.433 56.4333 111.067 57 108.4 57C104.267 57 100.833 55.5333 98.1 52.6C95.4333 49.7333 94.1 46.0667 94.1 41.6C94.1 37.1333 95.5 33.4667 98.3 30.6C101.033 27.6667 104.5 26.2 108.7 26.2C111.367 26.2 113.667 26.8 115.6 28C117.6 29.1333 119.867 31.2333 122.4 34.3V19.6Z" fill="#4531D3"/>
<path d="M186.3 17.1L181.3 20C180.367 18.4 179.467 17.3667 178.6 16.9C177.733 16.3 176.6 16 175.2 16C173.467 16 172.033 16.5 170.9 17.5C169.767 18.4333 169.2 19.6333 169.2 21.1C169.2 23.1 170.7 24.7 173.7 25.9L177.7 27.6C181.033 28.9333 183.467 30.5667 185 32.5C186.533 34.4333 187.3 36.8 187.3 39.6C187.3 43.3333 186.067 46.4333 183.6 48.9C181.067 51.3667 177.933 52.6 174.2 52.6C170.667 52.6 167.733 51.5667 165.4 49.5C163.133 47.3667 161.7 44.4 161.1 40.6L167.4 39.2C167.667 41.6 168.167 43.2667 168.9 44.2C170.167 45.9333 172 46.8 174.4 46.8C176.333 46.8 177.933 46.1667 179.2 44.9C180.467 43.6333 181.1 42 181.1 40C181.1 39.2 181 38.4667 180.8 37.8C180.533 37.1333 180.167 36.5333 179.7 36C179.233 35.4667 178.633 34.9333 177.9 34.4C177.167 33.9333 176.3 33.4667 175.3 33L171.3 31.4C165.7 29.0667 162.9 25.6 162.9 21C162.9 17.9333 164.1 15.3667 166.5 13.3C168.833 11.2333 171.733 10.2 175.2 10.2C179.933 10.2 183.633 12.5 186.3 17.1V17.1Z" fill="#4531D3"/>
<path fill-rule="evenodd" clip-rule="evenodd" d="M199.6 65.9H193.6V26.1H199.6V28.9C201.933 26.5667 204.6 25.4 207.6 25.4C211.133 25.4 214.067 26.7 216.4 29.3C218.733 31.9 219.9 35.1667 219.9 39.1C219.9 42.9667 218.733 46.2 216.4 48.8C214.067 51.3334 211.167 52.6 207.7 52.6C204.7 52.6 202 51.4 199.6 49V65.9ZM213.8 39.1C213.8 36.6334 213.1 34.6334 211.7 33.1C210.367 31.5 208.667 30.7 206.6 30.7C204.4 30.7 202.633 31.4667 201.3 33C199.967 34.5334 199.3 36.5334 199.3 39C199.3 41.4 199.967 43.4 201.3 45C202.633 46.5334 204.4 47.3 206.6 47.3C208.667 47.3 210.367 46.5 211.7 44.9C213.1 43.3667 213.8 41.4334 213.8 39.1V39.1Z" fill="#4531D3"/>
<path fill-rule="evenodd" clip-rule="evenodd" d="M224.9 38.8C224.9 35.0667 226.233 31.9 228.9 29.3C231.567 26.7 234.833 25.4 238.7 25.4C242.567 25.4 245.833 26.7 248.5 29.3C251.167 31.9667 252.5 35.2 252.5 39C252.5 42.8667 251.167 46.1 248.5 48.7C245.767 51.3 242.467 52.6 238.6 52.6C234.733 52.6 231.5 51.2667 228.9 48.6C226.233 46 224.9 42.7334 224.9 38.8V38.8ZM231 38.9C231 41.5 231.7 43.5334 233.1 45C234.5 46.5334 236.367 47.3 238.7 47.3C241.033 47.3 242.9 46.5334 244.3 45C245.7 43.5334 246.4 41.5334 246.4 39C246.4 36.5334 245.7 34.5334 244.3 33C242.833 31.4667 240.967 30.7 238.7 30.7C236.433 30.7 234.567 31.4667 233.1 33C231.7 34.5334 231 36.5 231 38.9Z" fill="#4531D3"/>
<path d="M258.8 26.1H264.7V28.4C265.833 27.2667 266.8 26.4667 267.6 26C268.467 25.6 269.5 25.4 270.7 25.4C272.3 25.4 273.933 25.9 275.6 26.9L272.9 32.4C271.767 31.5334 270.667 31.1 269.6 31.1C266.333 31.1 264.7 33.5667 264.7 38.5V51.9H258.8V26.1Z" fill="#4531D3"/>
<path d="M287.1 31.6V51.9H281.2V31.6H278.6V26.1H281.2V16.6H287.1V26.1H291.8V31.6H287.1Z" fill="#4531D3"/>
<path d="M310.8 30.5L305.9 33.1C305.1 31.5 304.133 30.7 303 30.7C302.467 30.7 302 30.9 301.6 31.3C301.2 31.6334 301 32.0667 301 32.6C301 33.6 302.167 34.6 304.5 35.6C307.633 36.9334 309.733 38.1667 310.8 39.3C311.933 40.5 312.5 42.0667 312.5 44C312.5 46.4667 311.567 48.5334 309.7 50.2C307.967 51.8 305.833 52.6 303.3 52.6C298.967 52.6 295.9 50.5 294.1 46.3L299.2 43.9C299.867 45.1667 300.4 45.9667 300.8 46.3C301.533 46.9667 302.4 47.3 303.4 47.3C305.4 47.3 306.4 46.3667 306.4 44.5C306.4 43.4334 305.633 42.4667 304.1 41.6C303.5 41.2667 302.9 40.9667 302.3 40.7C301.7 40.4334 301.067 40.1334 300.4 39.8C298.667 39 297.467 38.1667 296.8 37.3C295.867 36.2334 295.4 34.8334 295.4 33.1C295.4 30.9 296.167 29.0667 297.7 27.6C299.3 26.1334 301.233 25.4 303.5 25.4C306.767 25.4 309.2 27.1 310.8 30.5V30.5Z" fill="#4531D3"/>
</svg>
