<svg version="1.2" xmlns="http://www.w3.org/2000/svg" viewBox="0 0 313 76" width="313" height="76">
	<title>logo-svg</title>
	<style>
		.s0 { fill: #ffffff } 
	</style>
	<path id="Layer" fill-rule="evenodd" class="s0" d="m134.9 0v75.8h-134.9v-75.8h20v17.5h-12.5v10.4h12.5v37.6h11.1v-37.6h20.4v37.6h11.1v-24.9q0-13.7 9.1-13.7 3 0 6.1 2.3l5.1-10.2q-4.8-2.8-9.2-2.8-3.3 0-5.7 1.2-2.3 1.2-5.4 4.4v-4.3h-31.5v-17.5zm-12.5 19.6q-6.3-3.4-13.4-3.4-11 0-18.6 7.4-7.6 7.4-7.6 18.1 0 10.7 7.5 18 7.5 7.2 18.6 7.2 6.8 0 13.5-3.5v-14.7q-4 4.9-6.9 6.6-3.1 1.7-7.1 1.7-6.2 0-10.3-4.4-4-4.3-4-11 0-6.7 4.2-11 4.1-4.4 10.4-4.4 4 0 6.9 1.8 3 1.7 6.8 6.3z"/>
	<path id="Layer" class="s0" d="m186.3 17.1l-5 2.9q-1.4-2.4-2.7-3.1-1.3-0.9-3.4-0.9-2.6 0-4.3 1.5-1.7 1.4-1.7 3.6 0 3 4.5 4.8l4 1.7q5 2 7.3 4.9 2.3 2.9 2.3 7.1 0 5.6-3.7 9.3-3.8 3.7-9.4 3.7-5.3 0-8.8-3.1-3.4-3.2-4.3-8.9l6.3-1.4q0.4 3.6 1.5 5 1.9 2.6 5.5 2.6 2.9 0 4.8-1.9 1.9-1.9 1.9-4.9 0-1.2-0.3-2.2-0.4-1-1.1-1.8-0.7-0.8-1.8-1.6-1.1-0.7-2.6-1.4l-4-1.6q-8.4-3.5-8.4-10.4 0-4.6 3.6-7.7 3.5-3.1 8.7-3.1 7.1 0 11.1 6.9z"/>
	<path id="Layer" fill-rule="evenodd" class="s0" d="m199.6 65.9h-6v-39.8h6v2.8q3.5-3.5 8-3.5 5.3 0 8.8 3.9 3.5 3.9 3.5 9.8 0 5.8-3.5 9.7-3.5 3.8-8.7 3.8-4.5 0-8.1-3.6zm14.2-26.8q0-3.7-2.1-6-2-2.4-5.1-2.4-3.3 0-5.3 2.3-2 2.3-2 6 0 3.6 2 6 2 2.3 5.3 2.3 3.1 0 5.1-2.4 2.1-2.3 2.1-5.8z"/>
	<path id="Layer" fill-rule="evenodd" class="s0" d="m224.9 38.8q0-5.6 4-9.5 4-3.9 9.8-3.9 5.8 0 9.8 3.9 4 4 4 9.7 0 5.8-4 9.7-4.1 3.9-9.9 3.9-5.8 0-9.7-4-4-3.9-4-9.8zm6.1 0.1q0 3.9 2.1 6.1 2.1 2.3 5.6 2.3 3.5 0 5.6-2.3 2.1-2.2 2.1-6 0-3.7-2.1-6-2.2-2.3-5.6-2.3-3.4 0-5.6 2.3-2.1 2.3-2.1 5.9z"/>
	<path id="Layer" class="s0" d="m258.8 26.1h5.9v2.3q1.7-1.7 2.9-2.4 1.3-0.6 3.1-0.6 2.4 0 4.9 1.5l-2.7 5.5q-1.7-1.3-3.3-1.3-4.9 0-4.9 7.4v13.4h-5.9z"/>
	<path id="Layer" class="s0" d="m287.1 31.6v20.3h-5.9v-20.3h-2.6v-5.5h2.6v-9.5h5.9v9.5h4.7v5.5z"/>
	<path id="Layer" class="s0" d="m310.8 30.5l-4.9 2.6q-1.2-2.4-2.9-2.4-0.8 0-1.4 0.6-0.6 0.5-0.6 1.3 0 1.5 3.5 3 4.7 2 6.3 3.7 1.7 1.8 1.7 4.7 0 3.7-2.8 6.2-2.6 2.4-6.4 2.4-6.5 0-9.2-6.3l5.1-2.4q1 1.9 1.6 2.4 1.1 1 2.6 1 3 0 3-2.8 0-1.6-2.3-2.9-0.9-0.5-1.8-0.9-0.9-0.4-1.9-0.9-2.6-1.2-3.6-2.5-1.4-1.6-1.4-4.2 0-3.3 2.3-5.5 2.4-2.2 5.8-2.2 4.9 0 7.3 5.1z"/>
</svg>